<svg xmlns="http://www.w3.org/2000/svg" xmlns:xlink="http://www.w3.org/1999/xlink" width="400" zoomAndPan="magnify" viewBox="0 0 300 112.499997" height="150" preserveAspectRatio="xMidYMid meet" version="1.0"><defs><g/></defs><g fill="#ffffff" fill-opacity="1"><g transform="translate(0.663721, 82.241425)"><g><path d="M 41.546875 -32.65625 C 43.910156 -31.019531 45.796875 -28.914062 47.203125 -26.34375 C 48.617188 -23.78125 49.328125 -20.953125 49.328125 -17.859375 C 49.328125 -15.367188 48.847656 -13.035156 47.890625 -10.859375 C 46.929688 -8.691406 45.632812 -6.804688 44 -5.203125 C 42.363281 -3.597656 40.457031 -2.328125 38.28125 -1.390625 C 36.113281 -0.460938 33.789062 0 31.3125 0 L 4.0625 0 L 4.0625 -59.984375 L 30.453125 -59.984375 C 32.710938 -59.984375 34.828125 -59.546875 36.796875 -58.671875 C 38.773438 -57.796875 40.507812 -56.625 42 -55.15625 C 43.5 -53.695312 44.671875 -51.976562 45.515625 -50 C 46.359375 -48.03125 46.78125 -45.914062 46.78125 -43.65625 C 46.78125 -41.226562 46.316406 -39.097656 45.390625 -37.265625 C 44.460938 -35.429688 43.179688 -33.894531 41.546875 -32.65625 Z M 16.921875 -37.484375 L 30.453125 -37.484375 C 31.984375 -37.484375 33.28125 -38.019531 34.34375 -39.09375 C 35.414062 -40.164062 35.953125 -41.460938 35.953125 -42.984375 C 35.953125 -44.503906 35.414062 -45.769531 34.34375 -46.78125 C 33.28125 -47.800781 31.984375 -48.3125 30.453125 -48.3125 L 16.921875 -48.3125 Z M 31.3125 -11.59375 C 33 -11.59375 34.429688 -12.3125 35.609375 -13.75 C 36.796875 -15.1875 37.390625 -16.863281 37.390625 -18.78125 C 37.390625 -20.757812 36.796875 -22.425781 35.609375 -23.78125 C 34.429688 -25.132812 33 -25.8125 31.3125 -25.8125 L 16.921875 -25.8125 L 16.921875 -11.59375 Z M 31.3125 -11.59375 "/></g></g></g><g fill="#ffffff" fill-opacity="1"><g transform="translate(53.033081, 82.241425)"><g><path d="M 16.5 0 L 4.828125 0 L 4.828125 -41.96875 L 16.5 -41.96875 Z M 10.65625 -47.71875 C 8.851562 -47.71875 7.332031 -48.335938 6.09375 -49.578125 C 4.851562 -50.816406 4.234375 -52.34375 4.234375 -54.15625 C 4.234375 -55.957031 4.851562 -57.492188 6.09375 -58.765625 C 7.332031 -60.035156 8.851562 -60.671875 10.65625 -60.671875 C 12.46875 -60.671875 13.992188 -60.035156 15.234375 -58.765625 C 16.472656 -57.492188 17.09375 -55.957031 17.09375 -54.15625 C 17.09375 -52.34375 16.472656 -50.816406 15.234375 -49.578125 C 13.992188 -48.335938 12.46875 -47.71875 10.65625 -47.71875 Z M 10.65625 -47.71875 "/></g></g></g><g fill="#ffffff" fill-opacity="1"><g transform="translate(74.437684, 82.241425)"><g><path d="M 18.953125 -10.328125 L 38.328125 -10.328125 L 38.328125 0 L 3.640625 0 L 3.640625 -9.8125 L 20.90625 -31.5625 L 5.25 -31.5625 L 5.25 -41.96875 L 37.828125 -41.96875 L 37.828125 -34.1875 Z M 18.953125 -10.328125 "/></g></g></g><g fill="#ffffff" fill-opacity="1"><g transform="translate(116.570061, 82.241425)"><g><path d="M 28.09375 -43.15625 C 31.082031 -43.15625 33.84375 -42.578125 36.375 -41.421875 C 38.914062 -40.265625 41.101562 -38.679688 42.9375 -36.671875 C 44.769531 -34.671875 46.207031 -32.332031 47.25 -29.65625 C 48.289062 -26.976562 48.8125 -24.113281 48.8125 -21.0625 C 48.8125 -18.019531 48.289062 -15.15625 47.25 -12.46875 C 46.207031 -9.789062 44.769531 -7.453125 42.9375 -5.453125 C 41.101562 -3.453125 38.914062 -1.875 36.375 -0.71875 C 33.84375 0.4375 31.082031 1.015625 28.09375 1.015625 C 25.664062 1.015625 23.296875 0.578125 20.984375 -0.296875 C 18.671875 -1.171875 16.863281 -2.285156 15.5625 -3.640625 L 15.5625 16.75 L 3.890625 16.75 L 3.890625 -41.96875 L 13.875 -41.96875 L 15.5625 -39.09375 C 17.195312 -40.5625 19.03125 -41.601562 21.0625 -42.21875 C 23.09375 -42.84375 25.4375 -43.15625 28.09375 -43.15625 Z M 26.5625 -9.390625 C 28.09375 -9.390625 29.519531 -9.695312 30.84375 -10.3125 C 32.164062 -10.9375 33.320312 -11.769531 34.3125 -12.8125 C 35.300781 -13.863281 36.085938 -15.09375 36.671875 -16.5 C 37.265625 -17.90625 37.5625 -19.425781 37.5625 -21.0625 C 37.5625 -22.644531 37.265625 -24.15625 36.671875 -25.59375 C 36.085938 -27.03125 35.300781 -28.269531 34.3125 -29.3125 C 33.320312 -30.351562 32.164062 -31.1875 30.84375 -31.8125 C 29.519531 -32.4375 28.09375 -32.75 26.5625 -32.75 C 25.039062 -32.75 23.617188 -32.535156 22.296875 -32.109375 C 20.972656 -31.679688 19.816406 -31.003906 18.828125 -30.078125 C 17.835938 -29.148438 17.0625 -27.9375 16.5 -26.4375 C 15.9375 -24.945312 15.65625 -23.15625 15.65625 -21.0625 C 15.65625 -19.09375 15.9375 -17.390625 16.5 -15.953125 C 17.0625 -14.515625 17.835938 -13.300781 18.828125 -12.3125 C 19.816406 -11.320312 20.972656 -10.585938 22.296875 -10.109375 C 23.617188 -9.628906 25.039062 -9.390625 26.5625 -9.390625 Z M 26.5625 -9.390625 "/></g></g></g><g fill="#ffffff" fill-opacity="1"><g transform="translate(166.570532, 82.241425)"><g><path d="M 47.71875 -41.96875 L 47.71875 0 L 37.65625 0 L 36.46875 -4.484375 C 34.832031 -2.285156 32.867188 -0.816406 30.578125 -0.078125 C 28.296875 0.648438 25.914062 1.015625 23.4375 1.015625 C 20.445312 1.015625 17.695312 0.4375 15.1875 -0.71875 C 12.675781 -1.875 10.488281 -3.453125 8.625 -5.453125 C 6.769531 -7.453125 5.316406 -9.789062 4.265625 -12.46875 C 3.222656 -15.15625 2.703125 -18.019531 2.703125 -21.0625 C 2.703125 -24.113281 3.222656 -26.976562 4.265625 -29.65625 C 5.316406 -32.332031 6.769531 -34.671875 8.625 -36.671875 C 10.488281 -38.679688 12.675781 -40.265625 15.1875 -41.421875 C 17.695312 -42.578125 20.445312 -43.15625 23.4375 -43.15625 C 26.144531 -43.15625 28.625 -42.726562 30.875 -41.875 C 33.132812 -41.03125 35 -39.679688 36.46875 -37.828125 L 37.65625 -41.96875 Z M 36.046875 -20.90625 C 36.046875 -23.101562 35.75 -24.945312 35.15625 -26.4375 C 34.5625 -27.9375 33.769531 -29.148438 32.78125 -30.078125 C 31.800781 -31.003906 30.644531 -31.679688 29.3125 -32.109375 C 27.988281 -32.535156 26.566406 -32.75 25.046875 -32.75 C 23.523438 -32.75 22.097656 -32.4375 20.765625 -31.8125 C 19.441406 -31.1875 18.269531 -30.351562 17.25 -29.3125 C 16.238281 -28.269531 15.453125 -27.03125 14.890625 -25.59375 C 14.328125 -24.15625 14.046875 -22.644531 14.046875 -21.0625 C 14.046875 -19.425781 14.328125 -17.90625 14.890625 -16.5 C 15.453125 -15.09375 16.238281 -13.863281 17.25 -12.8125 C 18.269531 -11.769531 19.441406 -10.9375 20.765625 -10.3125 C 22.097656 -9.695312 23.523438 -9.390625 25.046875 -9.390625 C 28.085938 -9.390625 30.664062 -10.332031 32.78125 -12.21875 C 34.894531 -14.113281 35.984375 -17.007812 36.046875 -20.90625 Z M 36.046875 -20.90625 "/></g></g></g><g fill="#ffffff" fill-opacity="1"><g transform="translate(218.009266, 82.241425)"><g><path d="M 15.3125 -36.125 C 15.875 -37.03125 16.519531 -37.890625 17.25 -38.703125 C 17.988281 -39.523438 18.863281 -40.257812 19.875 -40.90625 C 20.894531 -41.550781 22.050781 -42.070312 23.34375 -42.46875 C 24.644531 -42.863281 26.113281 -43.0625 27.75 -43.0625 C 29.664062 -43.0625 31.894531 -42.722656 34.4375 -42.046875 L 33.34375 -31.640625 C 32.71875 -31.753906 32.09375 -31.894531 31.46875 -32.0625 C 30.96875 -32.175781 30.40625 -32.273438 29.78125 -32.359375 C 29.164062 -32.441406 28.601562 -32.484375 28.09375 -32.484375 C 26.28125 -32.484375 24.597656 -32.226562 23.046875 -31.71875 C 21.503906 -31.21875 20.164062 -30.515625 19.03125 -29.609375 C 17.90625 -28.710938 17.003906 -27.628906 16.328125 -26.359375 C 15.648438 -25.085938 15.3125 -23.71875 15.3125 -22.25 L 15.3125 0 L 3.640625 0 L 3.640625 -41.96875 L 14.21875 -41.96875 Z M 15.3125 -36.125 "/></g></g></g><g fill="#ffffff" fill-opacity="1"><g transform="translate(252.865783, 82.241425)"><g><path d="M 27.078125 -24.53125 L 44.765625 0 L 30.796875 0 L 19.71875 -16.75 L 15.5625 -12.265625 L 15.5625 0 L 3.890625 0 L 3.890625 -61.765625 L 15.5625 -61.765625 L 15.5625 -27.5 L 29.1875 -41.96875 L 43.40625 -41.96875 Z M 27.078125 -24.53125 "/></g></g></g></svg>